<svg width="62.869" height="60" viewBox="0 0 16.634 15.875" xmlns="http://www.w3.org/2000/svg"><path d="M4.033 5.044c.061.08.111.155.18.23a3.773 3.773 0 0 0 .64.566c.079.05.153.097.218.142.063.042.137.08.195.113.058.033.108.062.16.084l.144.07h.386l.146-.07c.05-.024.101-.051.16-.084.058-.032.13-.07.193-.113l.22-.143a4.31 4.31 0 0 0 .22-.166c.146-.12.294-.253.418-.4.07-.073.119-.149.18-.229A2.3 2.3 0 0 0 7.64 4.8c.088-.168.146-.345.135-.528a.957.957 0 0 0-.064-.279c-.036-.094-.088-.19-.137-.286a3.326 3.326 0 0 1-.267-.583c-.063-.194-.12-.39-.19-.583-.065-.192-.141-.38-.213-.564-.08-.184-.15-.36-.226-.528a18.574 18.574 0 0 0-.214-.473c-.069-.147-.14-.28-.198-.4a8.04 8.04 0 0 0-.16-.307A5.15 5.15 0 0 0 5.957 0H5.57s-.059.097-.15.269c-.048.085-.102.189-.16.307-.059.12-.13.253-.197.4-.07.146-.142.306-.216.473-.075.168-.146.344-.225.528-.07.183-.149.372-.213.564-.07.192-.126.388-.19.583-.06.195-.163.391-.268.583-.048.095-.1.192-.136.286a.908.908 0 0 0-.063.28c-.013.183.047.359.134.527.042.084.094.165.146.244M9.378 5.158c.061.07.111.14.18.207.124.133.272.254.419.362.072.054.15.105.222.15l.217.128c.063.04.137.074.195.104.058.028.108.055.16.077.093.04.144.064.144.064h.386s.051-.024.146-.064c.05-.02.101-.047.16-.077a1.94 1.94 0 0 0 .193-.104c.067-.04.14-.08.219-.128a3.792 3.792 0 0 0 .638-.512c.07-.066.12-.136.181-.207.054-.071.104-.145.147-.222a.842.842 0 0 0 .135-.478.812.812 0 0 0-.064-.253c-.036-.085-.088-.17-.137-.259a2.867 2.867 0 0 1-.267-.527c-.063-.176-.12-.354-.19-.528-.065-.175-.142-.345-.213-.512-.08-.165-.15-.325-.226-.478a14.492 14.492 0 0 0-.214-.428c-.069-.133-.14-.254-.198-.362a5.942 5.942 0 0 0-.16-.279c-.09-.155-.15-.245-.15-.245h-.386s-.058.09-.149.245c-.048.077-.102.17-.16.279-.059.108-.13.229-.197.362-.07.133-.142.276-.216.428-.075.152-.146.313-.225.478-.07.167-.149.337-.213.512-.07.174-.127.351-.19.528a2.89 2.89 0 0 1-.268.527c-.048.089-.1.174-.136.26a.77.77 0 0 0-.063.252c-.013.167.047.326.134.478.042.077.094.15.146.222M2.338 8.839c.054-.037.112-.079.175-.121.122-.086.237-.184.337-.289.102-.107.193-.22.261-.343a.67.67 0 0 0 .109-.38c-.006-.134-.08-.27-.161-.41a2.344 2.344 0 0 1-.214-.421c-.05-.142-.096-.283-.153-.422-.051-.14-.112-.276-.17-.409-.062-.132-.119-.26-.18-.382-.058-.121-.117-.236-.172-.342-.054-.106-.11-.203-.158-.29a4.389 4.389 0 0 0-.128-.221c-.072-.124-.12-.195-.12-.195h-.308s-.047.07-.12.195a3.858 3.858 0 0 0-.127.221c-.047.087-.104.184-.158.29-.056.106-.114.221-.172.342-.061.122-.118.25-.18.382-.058.133-.12.27-.171.409-.056.14-.101.28-.153.422-.05.14-.13.283-.213.42-.081.14-.155.277-.16.41-.01.133.038.26.107.381.067.123.158.237.26.343.102.105.217.203.34.289.06.042.12.084.174.12l.174.103c.05.032.108.058.155.083.046.024.088.044.128.06l.116.052h.309s.04-.02.116-.051c.04-.016.081-.036.127-.061.047-.025.107-.052.156-.083a8.08 8.08 0 0 1 .174-.102M16.472 8.178a2.361 2.361 0 0 1-.213-.422c-.051-.14-.097-.282-.154-.42-.051-.14-.112-.277-.169-.41-.063-.131-.12-.26-.18-.382-.059-.12-.117-.236-.173-.342-.054-.105-.11-.202-.158-.289a4.743 4.743 0 0 0-.128-.223c-.072-.124-.119-.194-.119-.194h-.309s-.046.07-.119.194a3.813 3.813 0 0 0-.128.223c-.047.087-.104.184-.158.289-.055.106-.114.221-.172.342-.061.121-.118.25-.18.383-.057.132-.12.269-.171.408-.056.14-.101.28-.152.421-.05.142-.131.283-.214.422-.08.14-.155.276-.16.409-.01.132.038.26.108.382.067.121.158.236.26.342.101.106.216.203.338.29l.175.12.174.103a4.52 4.52 0 0 0 .283.144l.116.05h.309l.117-.05c.04-.016.08-.036.126-.061.047-.025.107-.053.157-.083a8.52 8.52 0 0 1 .173-.102c.054-.04.113-.079.175-.121.122-.087.238-.184.337-.29.103-.106.194-.221.262-.342a.678.678 0 0 0 .108-.382c-.006-.133-.08-.27-.16-.409M13.963 11.263a6.964 6.964 0 0 0-.08-.463 1.462 1.462 0 0 0-.062-.24c-.027-.08-.054-.163-.083-.244a7.13 7.13 0 0 0-.19-.496 3.059 3.059 0 0 0-.265-.503 7.36 7.36 0 0 0-.324-.505c-.054-.084-.128-.167-.198-.25a4.334 4.334 0 0 0-.219-.244c-.075-.08-.153-.159-.23-.239-.078-.08-.155-.16-.25-.232a11.896 11.896 0 0 0-.568-.425c-.193-.138-.41-.25-.63-.364-.11-.057-.223-.105-.337-.156a3.226 3.226 0 0 0-.344-.135c-.944-.344-1.934-.41-2.827-.309a6.316 6.316 0 0 0-2.281.758c-.156.093-.3.188-.447.285l-.213.152-.192.156c-.126.105-.247.219-.367.328-.112.109-.214.23-.317.345-.051.058-.104.113-.15.173l-.134.182-.13.178-.12.185a6.045 6.045 0 0 0-.212.371c-.067.125-.133.246-.184.375a6.383 6.383 0 0 0-.456 1.502 7.667 7.667 0 0 0 .01 2.594l.045.245c.016.078.034.153.051.221.032.137.066.26.096.359.027.096.056.182.074.233l.03.08.413.374.101-.102.295-.29c.251-.25.628-.59 1.089-.976.115-.095.235-.195.363-.292.125-.1.257-.2.393-.301.134-.102.28-.195.424-.297.15-.088.295-.198.451-.283.307-.192.64-.339.973-.485.335-.13.682-.229 1.027-.275.34-.036.682-.036 1.002.044.316.09.627.2.895.399.066.048.139.085.202.14.062.056.125.109.189.161.13.098.236.23.348.346.054.06.114.112.16.179.05.065.097.128.146.19.097.124.192.243.269.372.08.125.156.247.233.361.074.115.134.235.196.342.061.11.118.21.17.306.052.095.092.187.132.268.075.165.143.292.186.38l.068.134.505-.206s.017-.02.05-.065c.032-.04.086-.106.14-.186.059-.082.128-.183.201-.298.035-.06.075-.124.117-.191.037-.067.076-.14.12-.215.084-.154.165-.317.245-.502.083-.19.14-.38.212-.6.035-.11.067-.22.095-.336.029-.116.061-.233.077-.357.036-.247.06-.509.071-.785.005-.14.013-.274-.003-.422a6.308 6.308 0 0 0-.05-.448" style="fill:#231f20;fill-opacity:1;fill-rule:nonzero;stroke:none;stroke-width:1.42209"/></svg>