<svg width="72.998" height="59.998" viewBox="0 0 19.314 15.875" xmlns="http://www.w3.org/2000/svg"><path d="m17.63 7.738.016.008-.043.014-.081.027-.114.166c-.027.04-.04.082-.076.12a.8.8 0 0 1-.1.12c-.076.077-.166.15-.264.215-.196.132-.422.24-.654.321a2.54 2.54 0 0 1-.695.147c-.055.006-.105 0-.15 0-.054-.005-.086-.012-.134-.023a1.037 1.037 0 0 1-.255-.104l-.57-.328-.135.7-.108.557c-.047.181-.085.367-.14.545-.056.178-.105.359-.174.531-.062.175-.13.345-.203.514-.034.086-.08.165-.117.248a5.33 5.33 0 0 1-.405.702 4.292 4.292 0 0 1-.321.417c-.055.066-.115.126-.172.185-.028.028-.058.06-.086.083l-.064.057-.021.017-.022.018-.394.31c-.132.102-.257.215-.404.293l-.424.258c-.139.089-.297.14-.445.213-.15.068-.296.143-.457.184l-.468.15-.484.095c-.16.04-.327.042-.49.062l-.247.026c-.082.006-.166.002-.248.004-.13-.002-.26.004-.39 0 .07-.032.139-.066.205-.105.136-.076.28-.137.405-.226.128-.085.259-.168.384-.257l.36-.287.333-.314.31-.335c.095-.12.194-.234.283-.358a5.728 5.728 0 0 0 .495-.803l.01-.02.008-.022c.176-.49.3-1.025.278-1.597a2.852 2.852 0 0 0-.1-.644l-.015-.053-.004-.014-.018-.051-.008-.02a1.183 1.183 0 0 0-.074-.152 1.015 1.015 0 0 0-1.133-.49l-.11.006-.147.002a7.076 7.076 0 0 1-.889-.052 3.823 3.823 0 0 1-1.07-.273l-.01-.006c-.025-.016-.046-.026-.07-.04a1.459 1.459 0 0 0-.377-.127 1.862 1.862 0 0 0-.462-.025c-.296.02-.562.095-.81.19l-.022.009-.013.006-.315.14-.335.127c-.23.078-.462.155-.7.222l-.15.041c.202-.134.399-.276.589-.43.112-.091.222-.185.33-.284.111-.102.208-.196.328-.327l.306-.34-.3-.356a4.856 4.856 0 0 0-.314-.34 6.574 6.574 0 0 0-.298-.278l.156.05.326.119.301.13.053.022c.263.097.547.173.868.193.16.01.328.004.508-.03a1.751 1.751 0 0 0 .421-.145c.027-.014.05-.027.08-.046.004-.002.008-.004.01-.008.29-.133.64-.222 1.005-.273a6.44 6.44 0 0 1 .874-.06h.145l.114.005c.072.013.146.025.23.025.112.004.246-.013.374-.055.13-.043.258-.116.357-.205a1.139 1.139 0 0 0 .31-.435l.014-.037.022-.064.002-.01.012-.043a2.86 2.86 0 0 0 .095-.658c.018-.58-.113-1.115-.294-1.604l-.012-.032-.004-.01a4.151 4.151 0 0 0-.241-.422 5.987 5.987 0 0 0-.265-.371c-.091-.122-.193-.233-.289-.35l-.314-.325-.337-.302-.36-.275c-.124-.086-.256-.161-.383-.241-.126-.083-.269-.138-.402-.207a2.704 2.704 0 0 0-.416-.174C7.788.823 7.65.757 7.505.728L7.069.624c-.135-.032-.275-.04-.411-.057.124-.032.25-.064.375-.094.173-.036.349-.06.525-.092.175-.028.353-.035.53-.054.177-.024.356-.012.534-.016.09 0 .18-.004.268 0l.266.027c.177.02.358.024.531.068l.526.107.512.164c.174.046.334.129.496.206.16.082.33.144.481.243l.456.288c.157.089.29.212.43.324l.42.344.002.002c.287.255.524.578.73.91a5.827 5.827 0 0 1 .402.784c.037.091.08.18.112.273a9.263 9.263 0 0 1 .098.284c.03.091.057.183.082.275.058.188.095.38.14.572.043.191.067.386.102.58.024.194.045.388.066.584l.02.188.18-.079c.116-.051.236-.086.358-.1.062-.008.123-.01.184-.008.049.006.14.008.192.021.116.016.25.056.372.094.124.043.246.09.365.147.237.112.461.254.654.418.192.163.343.361.408.552l.035.102zM10 5.53l-.003.004L10 5.53m8.594 1.975-.67-.238a1.47 1.47 0 0 0-.215-.297 2.201 2.201 0 0 0-.35-.309 3.802 3.802 0 0 0-1.205-.55 2.926 2.926 0 0 0-.444-.077c-.086-.01-.134-.006-.224-.008a1.508 1.508 0 0 0-.495.107l-.067-.41c-.046-.197-.08-.394-.134-.589-.055-.193-.102-.388-.171-.577-.06-.192-.136-.378-.21-.565-.033-.094-.08-.184-.12-.276a5.889 5.889 0 0 0-.427-.796 5.008 5.008 0 0 0-.352-.49 3.235 3.235 0 0 0-.421-.436l-.006-.004-.41-.35c-.14-.117-.274-.245-.433-.338l-.46-.304c-.152-.103-.326-.17-.487-.257-.166-.08-.327-.17-.503-.228L10.273.32 9.735.183C9.557.129 9.372.116 9.19.086a4.202 4.202 0 0 0-.552-.06c-.185-.008-.37-.034-.556-.024-.186.006-.373.001-.558.018-.185.018-.371.032-.556.055-.183.032-.369.055-.552.091-.181.041-.367.071-.547.124a7.43 7.43 0 0 0-1.081.363l-1.372.601 1.547-.039.395-.01c.131.002.263-.02.393.001l.388.035c.13.004.255.038.381.063.125.03.254.045.375.085l.362.122c.122.034.232.102.348.151.116.05.228.106.334.176.106.069.22.122.318.202l.302.225.283.248.264.27.243.287c.073.103.151.2.22.306a4.843 4.843 0 0 1 .343.595c.127.395.197.794.17 1.155a1.785 1.785 0 0 1-.06.344l-.046-.01-.029-.002-.186-.01-.175-.004a8.033 8.033 0 0 0-1.043.051c-.466.059-.943.16-1.424.377l-.139.091.045-.035-.014.004a.739.739 0 0 1-.252.018 1.546 1.546 0 0 1-.235-.04 3 3 0 0 1-.258-.084l.053.023-.393-.17-.385-.139c-.253-.08-.506-.161-.758-.228a33.387 33.387 0 0 0-3.01-.657 52.345 52.345 0 0 0-1.515-.238l-.173-.025C2.914 5.115 4.4 7.673 4.4 7.673s-1.276 2-4.4 2.936l.073.03.1-.016a53.692 53.692 0 0 0 2.419-.463c.193-.03.387-.056.58-.088.502-.083 1.003-.18 1.506-.293.25-.055.503-.122.755-.19l.38-.119.385-.146-.036.013c.193-.06.385-.098.557-.1a.88.88 0 0 1 .234.022c.032.01.064.02.087.03.012.004.02.01.028.013a.061.061 0 0 1-.014-.012l.103.07c.448.228.908.35 1.363.428a7.86 7.86 0 0 0 1.026.094l.172.002.184-.004h.026l.064-.014c.014-.002.02-.002.029-.002l.008.03a1.85 1.85 0 0 1 .05.406c.008.365-.085.758-.231 1.142a4.656 4.656 0 0 1-.383.58c-.074.099-.159.191-.238.287l-.258.268-.277.247-.292.224-.31.197c-.101.07-.216.112-.323.17-.107.06-.219.105-.335.144-.115.038-.223.095-.343.118l-.353.088c-.118.03-.242.034-.362.053-.121.014-.241.038-.365.032l-.37.004c-.123.01-.248-.02-.372-.029l-.371-.037-3.324-.336 2.932 1.52c.206.107.372.183.56.257.182.074.367.14.553.2.184.067.374.11.562.165.189.05.381.086.572.128.192.037.387.06.58.09.194.028.392.034.588.051.195.022.395.006.592.008.1-.002.198 0 .297-.006l.297-.03c.196-.024.395-.034.59-.084l.583-.129.567-.19c.192-.056.37-.147.55-.232.177-.09.365-.16.532-.269l.502-.318c.173-.098.32-.231.473-.354l.455-.376-.042.036c.077-.061.11-.094.159-.14.046-.042.084-.083.126-.126a5.534 5.534 0 0 0 .608-.802c.115-.186.222-.376.316-.57.05-.096.095-.193.137-.292.04-.1.09-.196.124-.297.075-.199.151-.398.207-.603.065-.202.108-.408.158-.613.047-.205.077-.412.115-.617l.01-.07c.061.005.122.01.175.007.095-.004.184-.008.266-.022.335-.05.63-.15.913-.277.283-.129.551-.286.8-.487.124-.101.243-.214.35-.347a1.543 1.543 0 0 0 .211-.328l.602-.262.722-.316zM7.07 9.305h-.002c.014.01.006.003.01.005l-.006-.004" style="fill:#000;fill-opacity:1;fill-rule:nonzero;stroke:none;stroke-width:.697272"/></svg>