<svg width="118.962" height="15.928" viewBox="0 0 31.475 4.214" xmlns="http://www.w3.org/2000/svg"><path d="M.284.287S.294.278.3.277C.29.267.284.287.284.287M.071.117 0 .051l.09.107zM.18.352.035.15l.108.183c0-.009 0-.026.035.02M3.406.186a.324.324 0 0 0 .043.081.26.26 0 0 0-.043-.081" style="fill:#231f20;fill-opacity:1;fill-rule:nonzero;stroke:none;stroke-width:.960818"/><path d="m1.8.278.035.04c.01.043-.011.003-.035-.04m-.482 1.669H5.38L4.31.371c.004.018.05.096.05.096s-.035-.015-.025.008c-.05-.011-.065-.03-.094-.01l.034.032c.147.24.003.053-.01.082L4.248.555c-.192-.173.024.083-.184-.115l.105.15c.21.32-.195-.19-.154-.068.028.035.044.052.073.086.05.11-.362-.436-.413-.477-.024-.027-.022-.044-.03-.065-.19-.19.125.195.11.241-.08-.105-.17-.268-.215-.288-.073-.085-.038.14-.038.14s.13.163.148.224C3.64.412 3.354.076 3.5.333a.768.768 0 0 1-.05-.065l.072.249c-.001 0 .013.25-.309-.225l-.06.026-.03-.05c-.071-.03-.012.083.048.198C3.137.433 3.115.389 3.1.364c-.138-.096-.132-.076-.032.161l-.11-.154C3.002.46 2.69.129 2.74.309A1.39 1.39 0 0 1 2.7.24s-.481-.428-.13.134l.042.138c.098.044.154.244.246.337-.004.033-.184-.169-.17-.198a.7.7 0 0 1 .024.028C2.526.386 2.558.575 2.424.375 2.3.39 2.06.228 1.926.216l.168.228C2.073.438 2.062.434 2.04.43 1.994.377 1.906.253 1.943.261c-.104-.129.021.109.054.158-.124-.092-.157-.265-.179-.27l-.014.016.024.027c.042.093.107.191.062.18-.055-.045-.107-.14-.123-.15C1.757.208 1.748.2 1.75.218c-.028-.008-.041-.013-.07-.02l.145.18c.035.089.106.193.106.193S1.647.458 1.558.36c.055.131.019.13-.034.113.037.038.18.24.127.215-.263-.407-.405-.46-.405-.46s-.077.04.147.31C1.34.506 1.285.384 1.196.286 1.233.446.966.18.914.234c.036.055.108.138.144.22L.826.18c0 .027.037.126.037.126s.09.116.09.134A1.423 1.423 0 0 0 .228.157s.087.116.072.12c.029.025.091.136.143.21L.231.28C.357.487.16.295.287.492V.456C.365.6 1.18 1.77 1.317 1.947M1.246 3.986l-.016.021zM.284 3.927s.01.01.017.01c-.01.01-.017-.01-.017-.01M.071 4.097 0 4.164l.09-.107zM.18 3.862l-.144.202.108-.182c0 .009 0 .025.035-.02M3.406 4.029a.324.324 0 0 1 .043-.082.26.26 0 0 1-.043.082" style="fill:#231f20;fill-opacity:1;fill-rule:nonzero;stroke:none;stroke-width:.960818"/><path d="m1.835 3.897-.035.04c.024-.043.045-.083.035-.04M.286 3.76l.001-.036c-.126.197.07.005-.055.21l.213-.205c-.053.074-.115.184-.144.21.015.004-.072.12-.071.12 0 0 .368-.016.722-.283 0 .018-.09.134-.09.134s-.036.099-.037.126l.233-.274c-.037.082-.108.165-.143.22.05.054.318-.212.28-.051.09-.098.144-.22.197-.254-.224.271-.146.31-.146.31s.141-.053.405-.46c.053-.024-.09.178-.126.216.053-.017.087-.019.033.112.089-.097.371-.21.371-.21s-.07.105-.105.195l-.144.178.069-.019c-.001.017.007.01.018-.006.015-.01.068-.104.123-.15.045-.01-.02.088-.063.18a.58.58 0 0 0-.023.028l.014.016c.022-.005.055-.179.179-.27-.033.05-.158.286-.054.157-.038.01.05-.116.099-.168l.053-.014-.17.228c.134-.013.375-.175.5-.16.133-.2.101-.01.287-.303l-.024.028c-.013-.03.167-.231.171-.198-.09.093-.149.293-.247.337l-.04.138c-.352.561.129.134.129.134s.028-.052.04-.07c-.052.18.26-.151.216-.06l.112-.156c-.1.238-.107.258.03.162.016-.025.038-.07.072-.102-.06.114-.12.228-.05.197l.031-.049.061.026c.32-.476.307-.226.307-.225l-.07.249a.634.634 0 0 1 .048-.064c-.144.256.14-.08.154-.051-.02.061-.149.223-.149.223s-.035.225.038.14c.045-.02.135-.182.215-.287.015.045-.299.43-.109.24.007-.02.005-.037.03-.065.05-.04.462-.587.412-.476l-.074.084c-.04.123.365-.387.155-.066l-.106.149c.209-.197-.007.059.186-.114a.262.262 0 0 1 .015-.024c.014.029.158-.158.01.081l-.032.033c.028.02.043.001.093-.01-.01.023.025.008.025.008s-.046.077-.05.096L5.38 2.268H1.317c-.136.176-.952 1.346-1.03 1.491" style="fill:#231f20;fill-opacity:1;fill-rule:nonzero;stroke:none;stroke-width:.960818"/><path d="M26.878 1.685a.79.79 0 0 0-.11.206c-.627-.02-1.253-.039-1.88-.049-.296-.007-.593-.01-.89-.014-1.167-.03-2.334-.05-3.5-.07l-2.195-.022c-.732-.01-1.463-.008-2.195-.006-1.464-.003-2.927.03-4.39.041-.733.008-1.465.014-2.196.03-.732.018-1.464.024-2.195.05l-1.608.047-.589-.022c-.731-.028-1.463-.067-2.194-.084-.599-.02-1.198-.036-1.796-.05a.36.36 0 0 0-.196.392s.13.198-.434.296c.807-.007 1.614-.016 2.422-.033.731-.009 1.464-.038 2.195-.057l.59-.016 1.607.064c.73.033 1.463.044 2.195.066.732.023 1.464.036 2.197.046 1.464.019 2.927.056 4.392.053a97.79 97.79 0 0 0 2.197-.011c.731-.012 1.464-.015 2.196-.037 1.17-.028 2.342-.065 3.512-.116.293-.01.587-.017.88-.03.611-.025 1.221-.06 1.83-.096.004.025.004.052.008.074.017.086.05.146.05.146-.1-.45.021-.696.097-.798" style="fill:#231f20;fill-opacity:1;fill-rule:nonzero;stroke:none;stroke-width:.960818"/><path d="m26.58 2.496.008-.021c.018.111.05.19.05.19s.055-.064.102-.17c.02-.04.038-.09.054-.143l.071.205v-.016c.007.029.014.053.02.072l.018.052.021-.03c.048-.079.137-.29.137-.29-.003.554.068.963 1.083.963 1.204 0 2.938-.926 3.283-1.285C31.853 1.58 29.348.74 28.144.74c-.875 0-1.047.303-1.077.741l-.004-.01s-.055.064-.102.169c-.028.06-.051.135-.072.215h-.026c0-.065-.003-.127-.012-.18-.017-.119-.053-.204-.053-.204s-.055.064-.102.169l-.008.022c-.018-.111-.05-.191-.05-.191s-.026.031-.057.082c-.082.143-.211.485-.104 1.113 0 0 .056-.064.103-.17" style="fill:#231f20;fill-opacity:1;fill-rule:nonzero;stroke:none;stroke-width:.960818"/></svg>