<svg width="77.662" height="60" viewBox="0 0 20.548 15.875" xmlns="http://www.w3.org/2000/svg"><path d="M13.585 11.557s.311 0 .752.105c.218.056.478.127.74.245.275.104.535.273.805.454.13.099.28.183.428.28.146.101.293.202.374.35.081.148.132.3.13.473a1.44 1.44 0 0 1-.053.476 1.943 1.943 0 0 1-.181.407 1.57 1.57 0 0 1-.248.297c-.163.157-.304.23-.304.23l-.257.018-.353-.124-.308-.107-.32-.104c-.094-.035-.2-.07-.272-.11-.074-.039-.152-.087-.178-.157a.67.67 0 0 1-.018-.287 1.22 1.22 0 0 0-.034-.34c-.065-.213-.155-.427-.24-.65-.09-.216-.185-.427-.274-.61-.179-.366-.318-.624-.318-.624zM13.585 4.318s.311 0 .752-.104c.218-.057.478-.128.74-.246.275-.104.535-.273.805-.454.13-.099.28-.183.428-.28.146-.101.293-.202.374-.35a.935.935 0 0 0 .13-.473 1.44 1.44 0 0 0-.053-.476 1.94 1.94 0 0 0-.181-.407 1.57 1.57 0 0 0-.248-.297c-.163-.157-.304-.23-.304-.23L15.77.983l-.353.124-.308.107-.32.104c-.094.035-.2.07-.272.11-.074.04-.152.087-.178.157a.67.67 0 0 0-.018.287 1.22 1.22 0 0 1-.034.34c-.065.213-.155.427-.24.65-.09.216-.185.427-.274.61-.179.366-.318.624-.318.624zM5.384 3.987s-.372-.002-.899-.125a5.435 5.435 0 0 1-.886-.294c-.328-.124-.64-.326-.962-.543-.155-.117-.334-.218-.512-.335-.175-.12-.35-.24-.447-.419a1.112 1.112 0 0 1-.155-.564c-.006-.2.005-.385.063-.57.056-.183.136-.348.217-.487.09-.142.197-.262.296-.355.195-.187.364-.275.364-.275L2.77 0l.421.147c.103.036.227.08.37.128L3.943.4c.113.041.24.083.325.132.089.047.182.103.213.187.03.085.038.204.022.344-.007.136.01.276.04.405.078.256.186.512.288.778.107.26.221.511.327.73.215.438.38.746.38.746zM5.384 11.888s-.372.002-.899.125c-.26.067-.572.152-.886.294-.328.124-.64.326-.962.543-.155.117-.334.218-.512.335-.175.12-.35.24-.447.419a1.112 1.112 0 0 0-.155.564c-.006.2.005.385.063.57.056.183.136.348.217.487.09.142.197.262.296.355.195.187.364.275.364.275l.307.02.421-.148.37-.127.382-.125c.113-.041.24-.083.325-.132.089-.047.182-.103.213-.187a.798.798 0 0 0 .022-.344c-.007-.137.01-.275.04-.405.078-.256.186-.512.288-.778.107-.26.221-.511.327-.73.215-.438.38-.746.38-.746z" style="fill:#000;fill-opacity:1;fill-rule:nonzero;stroke:none;stroke-width:.698193"/><path d="M10.851 13.504c1.28-.2 2.45-.826 3.252-1.63.207-.186.392-.422.58-.635l.017-.023c.078-.09.155-.182.232-.27.157-.229.339-.447.46-.693.283-.472.453-.987.553-1.506.19-1.044-.025-2.128-.58-3.08-.276-.478-.653-.911-1.067-1.315l-.338-.283c-.06-.05-.102-.09-.18-.146l-.176-.124-.358-.246-.4-.233a7.973 7.973 0 0 0-1.727-.715c-.301-.099-.62-.152-.934-.22-.32-.04-.64-.097-.965-.103a7.966 7.966 0 0 0-3.756.682c-.58.25-1.07.588-1.558.957A7.956 7.956 0 0 0 2.8 5.036c-.12.132-.234.266-.339.4-.19.253-.353.519-.5.791-.031.049-.06.1-.083.15-.008.017-.02.034-.028.051l.005.006c-.225.571-.005 1.237-.005 1.237C2.111 8.68 0 8.696 0 8.696c3.188 1.361 2.797-.759 2.797-.759-.003-.029 0-.056-.003-.086-.064-1.253.653-2.021.95-2.396.398-.43.88-.805 1.432-1.106a8.043 8.043 0 0 1 1.83-.742 6.247 6.247 0 0 1 2.02-.165c.681.053 1.345.214 1.97.442.627.23 1.215.525 1.728.895 1.031.734 1.69 1.779 1.921 2.87.231 1.102-.17 2.229-.887 3.173-.019.025-.041.048-.06.072a4.597 4.597 0 0 1-1.064.846c-.553.322-1.195.525-1.864.643a5.517 5.517 0 0 1-2.014-.012 5.05 5.05 0 0 1-1.792-.75c-.532-.35-.98-.775-1.291-1.262a3.084 3.084 0 0 1-.497-1.58 3.204 3.204 0 0 1 .399-1.602 4.19 4.19 0 0 1 .362-.554c.166-.174.345-.34.554-.479.512-.35 1.153-.572 1.815-.65a3.648 3.648 0 0 1 1.922.314c.146.063.292.144.42.218.133.088.28.173.392.268.243.18.458.397.627.629.352.46.498 1.013.44 1.55-.053.448-.252.88-.547 1.266a2.161 2.161 0 0 1-1.592.624c-.64-.027-1.285-.296-1.712-.688a1.58 1.58 0 0 1-.443-.69 1.378 1.378 0 0 1 .015-.777 1.76 1.76 0 0 1 .13-.304c.024-.018.042-.036.068-.053a1.25 1.25 0 0 1 .854-.159c.3.052.502.218.647.465.15.238.244.504.382.778l.137.266.41-.55c.155-.246.236-.529.2-.81a1.26 1.26 0 0 0-.407-.759c-.22-.214-.518-.367-.825-.465a2.13 2.13 0 0 0-1.029-.018c-.33.069-.63.212-.882.396a1.812 1.812 0 0 0-.403.425c-.063.059-.122.12-.173.186-.05.06-.08.115-.128.188l-.089.175c-.246.494-.315 1.054-.143 1.578.168.524.571.983 1.081 1.316.258.17.53.299.839.42.27.102.63.18.95.206a3.63 3.63 0 0 0 1.9-.376c.462-.23.841-.56 1.12-.937.162-.168.309-.349.42-.542.267-.467.465-.987.504-1.514a2.71 2.71 0 0 0-.341-1.555 3.782 3.782 0 0 0-.49-.683 4.592 4.592 0 0 0-.307-.314c-.109-.092-.208-.185-.326-.275a4.646 4.646 0 0 0-1.696-.79c-1.252-.312-2.667-.15-3.759.442a4.536 4.536 0 0 0-1.355 1.123c-.03.035-.055.073-.084.11-.056.06-.114.12-.166.182a4.31 4.31 0 0 0-.803 1.434c-.329 1.021-.2 2.129.335 3.088.27.481.632.92 1.094 1.306.113.088.22.177.337.265l.39.25c.27.152.539.299.835.41 1.16.478 2.524.612 3.796.391" style="fill:#000;fill-opacity:1;fill-rule:nonzero;stroke:none;stroke-width:.698193"/><path d="M17.39 5.868c1.285 0 3.158.732 3.158 2.018 0 1.286-2.287 2.121-3.573 2.121s-2.122-.835-2.122-2.121 1.25-2.018 2.536-2.018" style="fill:#000;fill-opacity:1;fill-rule:nonzero;stroke:none;stroke-width:.698193"/></svg>