<?xml version="1.0" standalone="no"?>
<svg width="160px" height="120px" viewBox="0 0 40 30"
 version="1.1" xmlns="http://www.w3.org/2000/svg">
	<desc>Flag of Habsburg Monarchy</desc>
	
	<rect x="0" y="0" width="40" height="15" fill="#FFDD11" />
	<rect x="0" y="15" width="40" height="15" fill="#444444" />

	<g viewbox="0 0 210 297" transform="translate(22, 21), scale(0.65), translate(-105, -148.5)">
		<g fill="#ffeeaa" stroke="#ffeeaa" stroke-width="1.5">
			<path d="m 90.236944,148.00941 13.011816,-17.37077 1.82165,1.36624 -11.71063,18.21654 c -1.419275,-0.16984 -2.396286,-1.00308 -3.122836,-2.21201 z" />
			<path d="m 95.043782,124.4262 c -1.641715,-0.11611 -1.830187,-0.0312 1.271215,1.73366 1.310445,0.86514 3.438348,2.43737 4.901083,3.43913 0.87147,0.98649 1.25897,1.40854 2.52411,2.20878 1.80284,1.36404 1.90819,1.26291 3.80483,2.45369 0.93728,0.602 1.81071,1.61436 2.38013,4.29821 0.31242,1.07138 0.38402,1.71266 1.14303,2.87566 0.97554,1.49478 0.98532,1.53843 2.276,0.085 1.09892,-1.33029 1.78682,-2.93845 2.64119,-4.42594 0.51315,-1.47996 0.49446,-1.49861 -0.23151,-1.90412 -2.77798,-1.63068 -5.61401,-2.78566 -8.1837,-5.01957 -0.74206,-1.49337 -2.3175,-2.53383 -4.06544,-2.59291 -4.023597,-1.48635 -6.37939,-2.85309 -8.460938,-3.1516 z" />
		</g>
		<path fill="#806600"
			d="m 90.236944,148.00941 13.011816,-17.37077 1.82165,1.36624 -11.71063,18.21654 c -1.419275,-0.16984 -2.396286,-1.00308 -3.122836,-2.21201 z" />
		<path fill="#999999"
			d="m 95.043782,124.4262 c -1.641715,-0.11611 -1.830187,-0.0312 1.271215,1.73366 1.310445,0.86514 3.438348,2.43737 4.901083,3.43913 0.87147,0.98649 1.25897,1.40854 2.52411,2.20878 1.80284,1.36404 1.90819,1.26291 3.80483,2.45369 0.93728,0.602 1.81071,1.61436 2.38013,4.29821 0.31242,1.07138 0.38402,1.71266 1.14303,2.87566 0.97554,1.49478 0.98532,1.53843 2.276,0.085 1.09892,-1.33029 1.78682,-2.93845 2.64119,-4.42594 0.51315,-1.47996 0.49446,-1.49861 -0.23151,-1.90412 -2.77798,-1.63068 -5.61401,-2.78566 -8.1837,-5.01957 -0.74206,-1.49337 -2.3175,-2.53383 -4.06544,-2.59291 -4.023597,-1.48635 -6.37939,-2.85309 -8.460938,-3.1516 z" />		
	</g>
	
</svg>
