<svg width="66.874" height="59.997" viewBox="0 0 17.694 15.874" xmlns="http://www.w3.org/2000/svg"><path d="M13.532.004C10.372-.008 7.21.01 4.05.01 1.966.008.327 1.406.043 3.251a1.653 1.653 0 0 0-.02.156l-.01.09c-.001.025-.001.044-.004.072-.002.044-.007.084-.007.13C.002 3.7 0 3.7 0 3.701h.002c-.024.733.172 1.506.612 2.254 1.555 2.647 3.14 5.278 4.704 7.92a4.049 4.049 0 0 0 2.625 1.908c.024.004.049.013.073.013l.01.002c1.507.301 3.374-.295 4.308-1.883 1.6-2.719 3.22-5.423 4.833-8.133.262-.44.436-.904.496-1.411C17.951 1.917 16.17.012 13.531 0m1.51 5.636c-1.217.976-3.384.219-3.659-1.28-.029-.163-.091-.348.175-.35.844-.007 1.715-.144 2.457.41.158.118.29.27.435.405 0 0 .337.435-.219.49a.585.585 0 0 1-.085.001 1.619 1.619 0 0 1-.272-.038c-.092-.025-.188-.05-.275-.096a13.807 13.807 0 0 0-1.034-.456c-.286-.114-.482-.177-.482-.177s.19.08.462.217c.275.136.634.333.98.542.186.112.385.195.595.233a.896.896 0 0 0 .319.006.727.727 0 0 0 .29-.114.772.772 0 0 0 .273-.364.94.94 0 0 0 .038-.114c.004-.013.042-.255.067-.418.007-.038.016-.08.02-.12.002-.02.005-.026.005-.026h-.003c.119-1.03-.417-1.753-1.518-1.95-1.227-.216-2.47-.057-3.708-.091-.17-.004-.26.076-.304.245-.44 1.667.393 3.619 1.952 4.575.612.373 1.285.54 2 .556.303.004.477.031.267.38-1.023 1.697-2.005 3.417-3.06 5.097-.6.956-1.883 1.262-2.888.79-1.063-.5-1.541-1.644-1.152-2.763.348-.998 1.516-1.666 2.597-1.483.527.088.563.197.333.677-.433.893-1.04 1.55-2.041 1.744-.137 0-.456-.038-.27-.43.013-.026.024-.045.04-.072a1.47 1.47 0 0 1 .398-.389c.347-.216.682-.451.928-.634a8.4 8.4 0 0 0 .4-.315s-.165.118-.427.277c-.259.16-.614.364-.978.547a1.78 1.78 0 0 0-.507.377.911.911 0 0 0-.168.263.65.65 0 0 0-.045.302c.005.05.016.094.031.136h-.004a.145.145 0 0 0 .007.006c.013.038.03.074.045.105.038.07.076.12.11.16.035.039.062.07.082.09.013.013.18.143.31.243.892.753 1.915.64 2.73-.342.728-.88 1.213-1.916 1.802-2.883.096-.158.079-.306-.096-.418-1.315-.838-2.678-1.488-4.31-.927-.916.31-1.689.813-2.185 1.642-.217.366-.35.324-.55-.013-.982-1.66-1.99-3.303-2.961-4.967-.545-.936-.266-2.194.56-2.754 1.082-.73 2.34-.644 3.105.216.811.911.84 2.205.08 3.042-.25.278-.424.338-.665-.031-.565-.851-1.02-1.705-.605-2.703.062-.116.245-.371.52-.032a.525.525 0 0 1 .047.067 1.438 1.438 0 0 1 .174.52c.038.398.099.796.152 1.09.056.296.105.488.105.488s-.03-.197-.058-.494c-.027-.297-.05-.695-.05-1.092a1.645 1.645 0 0 0-.113-.608.865.865 0 0 0-.166-.266.665.665 0 0 0-.52-.221.832.832 0 0 0-.197.019.367.367 0 0 0-.118.032c-.02.005-.288.118-.44.183-.86.328-1.334 1.034-1.13 2.012.105.512.337.98.61 1.432.352.583.712 1.166 1.05 1.758.196.346.404.447.794.228.977-.55 1.975-1.052 2.477-2.129.637-1.363.537-2.667-.288-4.014l2.12-.019c1.367-.002 2.734-.004 4.103-.004 1.092-.002 1.972.567 2.33 1.506.321.844-.005 1.824-.824 2.483" style="fill:#231f20;fill-opacity:1;fill-rule:nonzero;stroke:none;stroke-width:2.2336"/><path d="M8.847 5.673a.937.937 0 0 0-.232.032 4.62 4.62 0 0 1-.155.36c-.147.317-.326.589-.524.833.04.118.102.225.185.317a4.487 4.487 0 0 1 1.47-.02.93.93 0 0 0 .185-.35 5.252 5.252 0 0 1-.737-1.15.97.97 0 0 0-.192-.02" style="fill:#231f20;fill-opacity:1;fill-rule:nonzero;stroke:none;stroke-width:2.2336"/></svg>