<svg width="61.667" height="60" viewBox="0 0 16.316 15.875" xmlns="http://www.w3.org/2000/svg"><path d="M14.526 5.081c.44-.699.988-1.278 1.755-1.623.015-.008.041-.015.034-.05-.038.008-.08.012-.117.02-.3.063-.586.169-.86.308-.816.413-1.451 1.026-1.955 1.781-.248.365-.53.7-.857.992a4.172 4.172 0 0 1-.796.56l-.158-.165a5.37 5.37 0 0 0-.902-.56l.913-3.183-1.639 2.894c-.052-.02-.105-.038-.157-.05l-.275-.063a3.093 3.093 0 0 0-.466-.083c0-.304-.026-.612-.079-.917-.109-.609-.327-1.176-.586-1.736-.466-1.004-.616-2.045-.274-3.127C8.114.056 8.129.03 8.095 0a2.584 2.584 0 0 0-.278.522c-.376.914-.424 1.86-.237 2.815.124.617.237 1.233.173 1.864a4.759 4.759 0 0 1-.116.647l-.004-.004c-.083.011-.165.019-.248.038-.083.015-.165.026-.248.041-.083.015-.165.03-.244.053-.15.045-.301.086-.444.127L4.79 3.142l.924 3.273a5.59 5.59 0 0 0-.823.523A5.657 5.657 0 0 0 3.078 5.69c-.395-.177-.812-.3-1.184-.526C1.173 4.728.58 4.179.214 3.405.207 3.39.203 3.367.17 3.367a.946.946 0 0 0 .015.102c.068.323.184.628.342.92.429.797 1.049 1.421 1.804 1.91.421.278.793.609 1.116.992.177.21.327.432.451.67l-.037.037c-.038.052-.072.105-.105.154-.064.101-.128.203-.192.3-.053.083-.094.173-.135.26l.007-.015L0 7.727l3.134 1.721c-.026-.003-.184 1.14-.184 1.601 0 0 .143.03.15.008.282-.887.73-1.71.737-1.725.05-.08.11-.154.162-.237.056-.079.101-.17.169-.244.064-.075.128-.154.195-.237.06-.083.143-.154.218-.23.08-.074.15-.16.24-.225l.264-.218c.09-.067.192-.128.29-.195a4.921 4.921 0 0 1 1.36-.601c.128-.027.26-.057.39-.083.065-.015.132-.023.204-.03l.203-.023c.067-.004.135-.019.206-.019h.21c.072-.003.144-.003.215-.007h.026l.06.007.12.008c.08.004.159.011.241.015l.06.004.05.011.1.019c.132.022.264.041.407.086l.214.057c.071.015.139.048.21.071l.207.079c.068.03.135.064.203.098.068.033.135.06.2.101l.195.12c.135.068.251.173.375.26.124.094.233.206.354.308l.161.173c.053.056.113.113.158.176.399.497.722 1.09.89 1.763l.053.256c.02.086.042.173.046.259l.033.267.008.067v.02c0 .022.004-.02 0-.008l.004.037v.15c0 .095.007.2.003.29l-.022.26c0 .082-.019.176-.034.266-.019.087-.026.18-.049.27a4.33 4.33 0 0 1-.406 1.046c-.188.327-.42.642-.702.91-.29.258-.613.491-.974.657-.086.049-.18.075-.274.113-.09.037-.184.071-.282.094-.098.026-.192.052-.29.075l-.296.045c-.098.019-.2.019-.301.022l-.15.008h-.076c0 .004-.007.004-.01.004l-.016-.004-.041-.004-.316-.019c-.101-.011-.195-.03-.29-.049a3.88 3.88 0 0 1-1.112-.42 3.862 3.862 0 0 1-.906-.767 3.368 3.368 0 0 1-.597-1.004 3.454 3.454 0 0 1-.124-2.22c.098-.354.26-.681.473-.967A3.057 3.057 0 0 1 7.43 8.817c.33-.094.673-.117 1.011-.086a2.562 2.562 0 0 1 1.669.826 2.56 2.56 0 0 1 .661 1.658l.004.056v.015c0-.004 0-.004 0 0v.011l-.007.143-.004.072c0 .026 0 .049-.004.06-.008.026-.011.056-.019.086-.004.027-.004.053-.015.087l-.026.097c-.011.068-.042.132-.064.196-.094.255-.24.485-.432.676-.188.192-.414.35-.662.463a2.571 2.571 0 0 1-.789.203l-.101.007-.05.008h.016-.049l-.128-.004c-.045 0-.09 0-.109-.004-.056-.011-.105-.008-.169-.023-.06-.01-.124-.018-.184-.037a1.733 1.733 0 0 1-.64-.32 1.833 1.833 0 0 1-.668-1.187c-.011-.06-.015-.12-.019-.177l-.004-.045-.003-.011v.011-.237l.003-.071c.004-.049.008-.098.02-.15.033-.21.104-.403.21-.568.21-.33.56-.549.932-.654.094-.03.188-.049.282-.068.048-.01.094-.01.142-.018l.072-.008h.034c.01-.004-.012-.004-.004-.004h.03c.053-.003.101-.003.15-.003.053-.004.087 0 .132 0 .079 0 .165.015.244.022.162.027.305.075.432.135.124.068.233.147.324.234.18.176.278.39.345.563.06.18.094.327.11.425.01.101.018.154.018.154h.14s.007-.056.01-.162a2.54 2.54 0 0 0-.018-.48 1.75 1.75 0 0 0-.297-.752 1.592 1.592 0 0 0-.38-.384 2.035 2.035 0 0 0-.541-.274c-.105-.03-.207-.064-.323-.083a3.232 3.232 0 0 0-.17-.03c-.048-.003-.1-.011-.15-.015l-.019-.004h-.078l-.087-.003c-.06 0-.116-.004-.177 0a2.586 2.586 0 0 0-.375.034 2.624 2.624 0 0 0-.786.244 2.285 2.285 0 0 0-.725.579c-.207.251-.365.56-.459.89-.026.08-.041.17-.056.26l-.026.139-.012.105-.007.109-.004.026v.12c.004.083 0 .17.004.26.022.346.101.71.255 1.06.154.35.384.684.684.962.301.274.67.492 1.068.624.097.037.203.06.304.086.102.026.222.041.335.06.064.011.101.011.146.015l.124.012.034.003H8.832a3.646 3.646 0 0 0 2.402-.988c.338-.327.612-.725.793-1.173.045-.112.09-.229.116-.345l.049-.177c.015-.056.022-.128.034-.192l.03-.199c.004-.038.004-.06.007-.083l.004-.071.008-.147v-.033c.003-.083 0-.038.003-.06l-.003-.023v-.09a3.847 3.847 0 0 0-.305-1.398 3.797 3.797 0 0 0-.808-1.21 3.899 3.899 0 0 0-2.65-1.188 4.255 4.255 0 0 0-1.454.199c-.47.15-.913.383-1.3.691a4.017 4.017 0 0 0-1.503 2.462c-.17.962.007 1.95.447 2.778.218.417.5.796.834 1.112.33.32.71.59 1.116.793.406.207.838.338 1.286.41.116.01.233.033.342.041l.315.011.042.004h.048l.083-.007.165-.008c.113-.007.222-.007.331-.03l.327-.049.32-.083c.109-.022.214-.06.315-.097.102-.042.21-.072.308-.12l.297-.14c.098-.049.188-.109.286-.165l.14-.083.13-.097c.09-.068.185-.124.264-.2.342-.274.631-.605.89-.954a5.674 5.674 0 0 0 .767-1.797c.274-1.308.023-2.608-.034-2.65l3.007-1.627-3.3.914a5.102 5.102 0 0 0-.308-.564A5.584 5.584 0 0 0 14 6.216c.165-.383.3-.778.526-1.135" style="fill:#231f20;fill-opacity:1;fill-rule:nonzero;stroke:none;stroke-width:3.75829"/></svg>