<svg width="77.781" height="60" viewBox="0 0 20.58 15.875" xmlns="http://www.w3.org/2000/svg"><path d="M14.462 7.697a2.176 2.176 0 0 0 .2-1.743l-.012-.038-.001-.006c-.263-.782-1.049-1.481-2.056-1.474-.392.002-1.889.102-2.554.111a74.572 74.572 0 0 1-.959-1.904c-.262-.561-.025-1.227.488-1.534.542-.324 1.209-.192 1.607.32.358.459.32 1.183-.084 1.612-.195.209-.256.193-.408-.056-.283-.465-.406-.936-.2-1.44.04-.061.152-.193.278.008a.683.683 0 0 1 .065.181c.009.05.019.103.017.155-.002.222.005.442.017.608.011.164.026.274.026.274s-.005-.11 0-.275c.002-.166.015-.385.037-.603a.968.968 0 0 0-.024-.343.51.51 0 0 0-.072-.154.378.378 0 0 0-.124-.11.673.673 0 0 0-.071-.028h-.005a.633.633 0 0 0-.062-.013.59.59 0 0 0-.107 0l-.064.011-.204.064c-.608.172-.856.666-.646 1.325.189.592.52 1.124.791 1.68.045.09.117.128.222.083.772-.335 1.47-.748 1.695-1.649.127-.503.102-1.17-.146-1.636A2.141 2.141 0 0 0 10.373.004a2.174 2.174 0 0 0-1.65.597c-.008.01-.02.019-.028.028L8.69.633c-.583.583-.86 1.598-.404 2.497.189.373.907 1.585 1.229 2.21a72.669 72.669 0 0 1-1.012 1.868c-.31.536-.992.722-1.536.476-.576-.26-.85-.882-.657-1.502.173-.555.788-.939 1.371-.852.283.041.305.1.188.367-.22.499-.536.868-1.068.988-.073.002-.245-.014-.152-.233a.68.68 0 0 1 .112-.157.702.702 0 0 1 .117-.102c.183-.126.36-.257.488-.362.13-.103.21-.178.21-.178s-.087.067-.224.157a7.34 7.34 0 0 1-.517.315.975.975 0 0 0-.268.215.511.511 0 0 0-.085.147.379.379 0 0 0-.02.165.635.635 0 0 0 .018.075l.002.003a.68.68 0 0 0 .026.058.62.62 0 0 0 .061.088l.046.046c.006.006.1.077.17.131.487.401 1.034.323 1.455-.226.379-.494.625-1.07.927-1.61.048-.088.038-.169-.059-.229-.716-.443-1.453-.78-2.322-.45-.485.183-1.017.586-1.259 1.056A2.141 2.141 0 0 0 5.6 7.655c.34.554.865.9 1.433 1.013.012.001.027.005.039.007l.006.002c.812.146 1.803-.208 2.28-1.095.213-.395.791-1.554 1.138-2.208.79-.01 1.68-.021 2.181-.01.619.015 1.11.524 1.155 1.12.049.63-.366 1.168-1.003 1.296-.57.116-1.201-.24-1.405-.793-.1-.268-.058-.315.232-.341.542-.046 1.019.054 1.379.463.037.063.105.222-.132.245a.708.708 0 0 1-.19-.022.692.692 0 0 1-.147-.054 7.636 7.636 0 0 0-.552-.255c-.152-.064-.257-.099-.257-.099s.101.045.246.122c.148.075.339.185.524.302a.97.97 0 0 0 .317.131c.056.01.114.014.17.004a.382.382 0 0 0 .155-.061.74.74 0 0 0 .059-.056.572.572 0 0 0 .038-.05.623.623 0 0 0 .067-.158l.033-.211c.117-.621-.214-1.063-.898-1.169-.615-.095-1.238-.034-1.856-.04-.101 0-.167.048-.173.162-.045.84.014 1.649.72 2.252.394.338 1.002.612 1.53.598a2.141 2.141 0 0 0 1.774-1.053" style="fill:#231f20;fill-opacity:1;fill-rule:nonzero;stroke:none;stroke-width:.356708"/><path d="M20.579 13.17c-1.91-.662-3.766-1.02-5.334-1.672-.787-.308-1.49-.627-2.112-1.168-.318-.272-.611-.607-1.036-.97-.344-.32-1.328-1-1.85-.638-.16.111-.206.341-.458.341-.215 0-.275-.19-.423-.262-.342-.166-.72.216-1.018.405-.377.271-.772.695-1.171.986-.781.606-1.316.908-2.09 1.28-.77.383-1.485.757-2.328 1.007-.83.288-1.74.429-2.734.692l-.025.2c.916.487 1.956.691 3.025.633 1.058-.068 2.174-.419 3.005-1.112.84-.692 1.32-1.636 1.949-2.339.347-.413.794-.738 1.253-.886-.243.43-.47.844-.718 1.213a8.52 8.52 0 0 1-1.192 1.522c-.861.932-1.957 1.626-3.333 2.467l.006.1c1.501-.149 2.983-.77 4.05-1.872.512-.56.947-1.205 1.2-1.922.212-.512.332-1.05.414-1.595.197-.01.392.019.577.097.353.136.484.363.705.72.21.36.49.803.841 1.227a6.115 6.115 0 0 0 2.727 1.894c1.033.343 2.08.437 3.094.4 1.016-.043 2.01-.2 2.977-.547z" style="fill:#231f20;fill-opacity:1;fill-rule:nonzero;stroke:none;stroke-width:.356708"/><path d="M12.097 13.486c-.413-.545-.615-1.171-.939-1.745-.198-.276-.31-.6-.519-.906-.178-.317-.343-.653-.617-1l-.15.014a3.724 3.724 0 0 0-.109 2.456c.19.838.861 1.47 1.467 2.016 1.254 1.112 2.871 1.61 4.409 1.549l.009-.15c-1.43-.39-2.736-1.159-3.551-2.234" style="fill:#231f20;fill-opacity:1;fill-rule:nonzero;stroke:none;stroke-width:.356708"/></svg>