<svg width="77.781" height="60" viewBox="0 0 20.58 15.875" xmlns="http://www.w3.org/2000/svg"><path d="M20.579 13.17c-1.91-.662-3.766-1.019-5.334-1.672-.787-.308-1.49-.627-2.112-1.168-.318-.272-.611-.607-1.036-.97-.344-.32-1.328-1-1.85-.638-.16.111-.205.341-.458.341-.214 0-.275-.19-.423-.262-.342-.166-.72.216-1.018.405-.377.271-.772.695-1.171.986-.781.606-1.316.908-2.09 1.28-.77.383-1.485.757-2.328 1.008-.83.287-1.74.428-2.734.691l-.025.2c.916.487 1.956.691 3.025.633 1.058-.068 2.174-.419 3.004-1.112.84-.692 1.32-1.636 1.95-2.339.347-.412.794-.738 1.253-.886-.243.43-.47.843-.718 1.213a8.525 8.525 0 0 1-1.192 1.522c-.86.932-1.957 1.626-3.333 2.467l.006.1c1.502-.149 2.983-.77 4.05-1.872.512-.56.948-1.205 1.2-1.922.212-.512.332-1.05.414-1.595.197-.01.392.019.577.097.353.136.484.363.705.72.21.36.49.803.841 1.227a6.115 6.115 0 0 0 2.727 1.894c1.033.343 2.08.437 3.094.4 1.016-.043 2.01-.2 2.977-.547z" style="fill:#231f20;fill-opacity:1;fill-rule:nonzero;stroke:none;stroke-width:.356708"/><path d="M12.097 13.486c-.413-.545-.615-1.172-.939-1.745-.198-.276-.309-.6-.519-.906-.178-.317-.343-.653-.617-1l-.15.014a3.724 3.724 0 0 0-.109 2.456c.19.838.861 1.47 1.467 2.015 1.253 1.113 2.871 1.611 4.409 1.55l.009-.15c-1.43-.389-2.736-1.159-3.551-2.234" style="fill:#231f20;fill-opacity:1;fill-rule:nonzero;stroke:none;stroke-width:.356708"/></svg>