<svg width="51.535" height="59.972" viewBox="0 0 13.635 15.868" xmlns="http://www.w3.org/2000/svg"><path d="M13.634 13.205V13.2l-.002-.053v-.042l-.001-.005c.001-.014.001-.027.003-.036v-.033l-.002-.047v-.032c0 .003-.006-.07-.005-.041l-.016-.046-.008-.027a.358.358 0 0 0-.028-.075l-.006-.013c-.01-.023-.018-.046-.029-.068a.96.96 0 0 0-.099-.138l-.003-.002c-.003-.003-.006-.009-.01-.009a.985.985 0 0 0-.126-.125c-.819-.838-4.372-.448-5.081.071 0 0 0 .132.022.209 2.28-.733 4.457-.366 4.457.22 0 .743-2.633 1.345-5.884 1.347-3.25-.002-5.884-.604-5.884-1.347 0-.586 2.178-.953 4.46-.22.021-.077.021-.209.021-.209-.709-.52-4.264-.91-5.08-.07-.003.002-.008.004-.011.008-.009.005-.015.014-.021.019a1.042 1.042 0 0 0-.207.247.6.6 0 0 0-.036.082c-.011.023-.019.048-.027.074l-.009.028-.016.045-.003.042v.009l-.001.023-.002.046v.033c0 .014.002.027.003.037v.018l-.001.028L0 13.2V13.243c.003.058.013.113.024.171.016.07.043.138.068.203.059.126.136.244.22.343.085.102.177.192.27.273a4.417 4.417 0 0 0 .898.576c.412.205.837.36 1.27.495.218.068.438.122.66.178.108.028.221.053.331.076.112.023.224.047.337.067.112.018.225.036.338.058.114.018.227.037.34.05a16.48 16.48 0 0 0 1.997.133l.058.002h.012l.06-.002a15.124 15.124 0 0 0 1.995-.133c.115-.014.226-.032.34-.05.113-.018.225-.037.338-.058.112-.019.225-.046.337-.067.111-.023.221-.05.333-.076.222-.056.442-.11.659-.178.432-.134.857-.29 1.268-.495.206-.099.41-.215.606-.351.098-.068.197-.142.292-.225a2.39 2.39 0 0 0 .27-.273c.086-.099.162-.217.22-.343.028-.065.053-.133.069-.203.011-.058.022-.113.024-.171a.136.136 0 0 0 0-.037" style="fill:#000;fill-opacity:1;fill-rule:nonzero;stroke:none;stroke-width:1.61827"/><path d="M10.013 11.629s-.066-.07-.097-.118c1.178-.371 1.764-1.295 1.464-1.61-.377-.4-1.825-.245-3.063.742-1.312 1.046-1.552 3.264-1.596 3.326l-.085-.104a1.253 1.253 0 0 1-.175-.39 1.472 1.472 0 0 1-.044-.238 2.29 2.29 0 0 1 .024-.61c.044-.248.114-.474.2-.69.042-.11.092-.213.142-.316l.078-.153.087-.147a3.74 3.74 0 0 1 .09-.144 4.67 4.67 0 0 1 .095-.143c.066-.09.132-.18.205-.268a4.784 4.784 0 0 1 .455-.488v-.003c.001 0 .001-.002.003-.002.006-.005.013-.014.021-.018a4.905 4.905 0 0 1 .775-.595c.046-.028.096-.059.146-.087l.149-.082c.05-.028.1-.052.15-.078l.159-.07c.105-.045.21-.088.322-.124.222-.073.451-.131.7-.159.124-.018.255-.018.394-.014.071.005.142.01.218.023.075.01.152.028.235.055.08.028.167.064.25.112.044.027.087.055.127.086a.786.786 0 0 1 .097.085c.008.005.015.014.02.019l.001.003.028.027.014.014.007.009c-.002 0 .001.002.003.005.006.005.013.009.02.018l.012.014.003.003.023.028.011.009.005.005c0-.002.036.04.021.022l.018.028.01.018c.01.019.019.032.029.049l.003.009.024.047c.015.036.026.07.036.105v.003l.001.009c.007.036.018.076.018.11.138.723-1.319 1.702-1.833 1.66" style="fill:#000;fill-opacity:1;fill-rule:nonzero;stroke:#000;stroke-width:.0647308;stroke-linecap:butt;stroke-linejoin:miter;stroke-miterlimit:10;stroke-dasharray:none;stroke-opacity:1"/><path d="M3.442 11.629s.066-.07.097-.118C2.36 11.14 1.775 10.216 2.074 9.9c.377-.4 1.826-.245 3.064.742 1.312 1.046 1.551 3.264 1.595 3.326l.086-.104a1.253 1.253 0 0 0 .175-.39c.022-.082.035-.162.043-.238a2.29 2.29 0 0 0-.024-.61 3.474 3.474 0 0 0-.2-.69 4.003 4.003 0 0 0-.141-.316l-.078-.153-.088-.147a3.74 3.74 0 0 0-.09-.144 4.67 4.67 0 0 0-.094-.143c-.066-.09-.133-.18-.206-.268a4.784 4.784 0 0 0-.454-.488v-.003l-.004-.002c-.006-.005-.012-.014-.02-.018a5.232 5.232 0 0 0-.774-.596c-.047-.027-.097-.058-.147-.086l-.15-.082c-.05-.028-.1-.052-.15-.078l-.158-.07a3.376 3.376 0 0 0-.322-.124 3.428 3.428 0 0 0-.701-.159 2.194 2.194 0 0 0-.393-.014c-.072.005-.143.01-.219.023a1.199 1.199 0 0 0-.234.055c-.08.028-.167.064-.251.112a1.766 1.766 0 0 0-.127.086.786.786 0 0 0-.097.085c-.008.005-.014.014-.019.019l-.002.003-.027.027-.015.014-.006.009-.003.005c-.007.005-.013.009-.02.018-.005.005-.01.01-.012.014l-.004.003-.022.028-.012.009-.005.005c0-.002-.035.04-.02.022l-.019.028-.01.018c-.009.019-.018.032-.029.049l-.003.009-.024.047a1.187 1.187 0 0 0-.036.105v.003l-.001.009c-.007.036-.018.076-.018.11-.138.723 1.319 1.702 1.833 1.66" style="fill:#000;fill-opacity:1;fill-rule:nonzero;stroke:#000;stroke-width:.0647308;stroke-linecap:butt;stroke-linejoin:miter;stroke-miterlimit:10;stroke-dasharray:none;stroke-opacity:1"/><path d="m7.367 10.387.062-.014.124-.027.117-.032a3.714 3.714 0 0 0 2.683-3.539c0-.07 0-.138-.005-.206l-.006-.105-.01-.1a2.92 2.92 0 0 0-.026-.203l-.008-.05-.003-.022-.008-.037-.005-.014-.03-.097a5.35 5.35 0 0 0-1.054-1.897C6.922 1.366 7.222-.013 7.199.06a3.936 3.936 0 0 0-.086.328 3.557 3.557 0 0 0 .238 2.201 3.942 3.942 0 0 0 .803 1.175c.039.037.074.074.123.117.034.032.07.061.103.094.138.128.266.272.387.427.243.314.453.684.618 1.092.083.202.157.418.214.633l.018.074.003.018.003.042c.007.053.012.11.015.165l.005.082v.086a3.11 3.11 0 0 1-.796 2.08 3.177 3.177 0 0 1-1.219.834c-.06.018-.118.045-.181.058l-.091.027-.087.023-.044.009-.053.009-.107.023-.012.002h-.005l-.022.003-.049.005-.093.014a2.686 2.686 0 0 1-1.515-.28 2.752 2.752 0 0 1-1.322-1.48c-.026-.064-.046-.13-.067-.196a1.719 1.719 0 0 1-.025-.094l-.013-.05-.012-.055a2.506 2.506 0 0 1-.048-.829c.03-.277.105-.552.225-.809.123-.256.288-.495.489-.7.203-.206.441-.378.705-.506.131-.064.27-.115.41-.153.033-.01.066-.019.105-.028l.113-.027.105-.019.11-.013a2.33 2.33 0 0 1 .87.087c.28.084.543.226.773.408A2.28 2.28 0 0 1 8.585 6.2c.006.037.014.067.02.104l.019.111a2.017 2.017 0 0 1-1.397 2.19c-.06.018-.121.032-.181.047l-.088.014-.102.018-.085.01-.091.002c-.062.002-.121-.002-.18-.005a1.553 1.553 0 0 1-.346-.066 1.75 1.75 0 0 1-.607-.316 1.74 1.74 0 0 1-.637-1.102c-.064-.41.051-.822.286-1.131.117-.154.257-.283.416-.382.08-.049.163-.09.25-.123.041-.019.085-.032.127-.046l.058-.019c.023-.005.052-.009.078-.018a1.37 1.37 0 0 1 .51-.005c.166.028.323.086.462.17a1.442 1.442 0 0 1 .632.777c.011.036.019.061.028.098l.013.057c.003.009.007.032.01.046.006.032.01.067.015.1.012.132.008.26-.015.381a1.406 1.406 0 0 1-.942 1.058c-.033.014-.062.019-.08.028-.019.005-.029.005-.029.005l.015.073.028-.003c.019-.002.046-.003.087-.01a1.514 1.514 0 0 0 .812-.406 1.54 1.54 0 0 0 .411-.67c.046-.145.075-.306.073-.474-.001-.041-.001-.084-.006-.128-.003-.023-.003-.041-.008-.068l-.007-.058a1.492 1.492 0 0 0-.063-.267 1.755 1.755 0 0 0-.257-.518 1.868 1.868 0 0 0-1.793-.747 2.091 2.091 0 0 0-1.704 1.5c-.08.277-.102.575-.062.87l.004.027.006.032.008.046a2.846 2.846 0 0 0 .05.218c.012.037.021.071.034.107a2.288 2.288 0 0 0 .798 1.09c.25.185.539.32.848.39a2.343 2.343 0 0 0 .71.045l.119-.014.06-.009.028-.005.021-.005.013-.002.105-.023.12-.032a2.43 2.43 0 0 0 .64-.305c.265-.175.495-.403.671-.666a2.45 2.45 0 0 0 .384-1.82l-.023-.11c-.008-.037-.02-.078-.027-.117a2.796 2.796 0 0 0-.277-.657 2.675 2.675 0 0 0-2.423-1.324 2.987 2.987 0 0 0-1.81.72 3.022 3.022 0 0 0-.988 1.732 3.004 3.004 0 0 0-.003 1.021l.008.057.013.065c.01.045.018.087.03.129.022.08.041.163.07.244.054.162.117.321.195.471a3.417 3.417 0 0 0 3.437 1.836l.06-.009.032-.003c-.005 0 .023-.003.023-.005l.014-.002.107-.018z" style="fill:#000;fill-opacity:1;fill-rule:nonzero;stroke:#000;stroke-width:.129462;stroke-linecap:butt;stroke-linejoin:miter;stroke-miterlimit:10;stroke-dasharray:none;stroke-opacity:1"/></svg>