<svg width="60.563" height="60" viewBox="0 0 16.024 15.875" xmlns="http://www.w3.org/2000/svg"><g style="display:inline"><path style="fill:#000;stroke-width:.0333133" d="M102.842 141.484c-.405-.038-.792-.095-.866-.128a1.107 1.107 0 0 0-.232-.05 2.647 2.647 0 0 1-.417-.103c-.138-.047-.303-.1-.368-.12a3.628 3.628 0 0 1-.327-.132 1.727 1.727 0 0 0-.238-.097c-.044 0-.876-.43-.935-.484-.03-.027-.064-.049-.076-.049-.071 0-.713-.474-1.022-.754a6.574 6.574 0 0 0-.333-.29 9.521 9.521 0 0 1-.535-.6 6.68 6.68 0 0 0-.115-.134c-.1-.11-.416-.554-.416-.584 0-.02-.015-.036-.033-.036a.034.034 0 0 1-.034-.034.693.693 0 0 0-.09-.175 8.921 8.921 0 0 1-.607-1.207c-.08-.184-.136-.358-.136-.417 0-.036-.015-.066-.033-.066-.018 0-.033-.02-.033-.046s-.021-.12-.047-.208a7.286 7.286 0 0 1-.104-.429c-.03-.146-.068-.319-.084-.383-.046-.19-.132-1.1-.132-1.402 0-.281.076-1.05.132-1.33.09-.45.152-.707.22-.916.043-.128.087-.29.1-.358.012-.069.035-.125.052-.125.016 0 .03-.022.03-.049 0-.193.729-1.544 1.037-1.922.061-.076.144-.181.184-.235.253-.344.744-.84 1.16-1.173l.33-.264c.195-.159.633-.429.986-.61.174-.088.322-.172.328-.186.006-.014.03-.025.055-.025.024 0 .144-.045.267-.1.122-.055.244-.1.27-.1.025 0 .046-.011.046-.025 0-.015.071-.045.159-.068.087-.022.203-.055.258-.072.055-.018.167-.05.25-.07a3.31 3.31 0 0 0 .2-.059c.14-.05.687-.139 1.282-.206.536-.06 1.377-.018 1.982.1.45.087.707.149.916.219.129.042.29.087.358.1.07.012.125.035.125.052 0 .016.024.03.054.03.029 0 .092.02.141.047.049.026.14.067.203.092.317.121 1.299.664 1.33.734.005.014.028.026.05.026.021 0 .076.034.122.075.045.042.164.14.264.219.503.396.906.793 1.206 1.188.042.055.084.108.094.117.146.136.51.688.721 1.09l.177.333c.129.231.429 1.002.509 1.309.233.889.34 1.863.289 2.615-.031.458-.117 1.087-.163 1.199a1.282 1.282 0 0 0-.049.244 1.044 1.044 0 0 1-.048.234 2.013 2.013 0 0 0-.136.447.285.285 0 0 1-.032.116 3.26 3.26 0 0 0-.102.225l-.097.233c-.037.087-.43.88-.48.966a4.847 4.847 0 0 1-.66.933c-.05.055-.163.182-.25.283a8.351 8.351 0 0 1-.894.859c-.137.102-.336.259-.35.276-.078.096-1.022.624-1.499.84-.382.172-.428.19-.478.19-.028 0-.059.013-.069.03-.01.015-.081.038-.158.05a.624.624 0 0 0-.176.049c-.02.014-.147.051-.285.083-.137.032-.302.073-.366.091-.456.129-1.678.194-2.382.127zm1.347-1.398c.47-.06 1.2-.206 1.302-.261a.835.835 0 0 1 .166-.053.901.901 0 0 0 .165-.052c.047-.024.212-.094.384-.163.2-.08.846-.42.883-.465a.564.564 0 0 1 .11-.068c.115-.06.093-.078-.176-.15a3.352 3.352 0 0 1-1.43-.845c-.427-.427-.676-.847-.827-1.398-.082-.297-.09-.376-.09-.957-.002-.504.01-.687.06-.9a3.052 3.052 0 0 1 .837-1.535c.365-.369.768-.644 1.395-.95.482-.235.639-.273.733-.179.028.028.254.445.501.926.684 1.33.875 1.822.909 2.339.054.839-.314 1.315-1.222 1.58-.34.1-.381.105-.535.068-.428-.103-.548-.464-.454-1.366l.047-.45.005.45c.007.659.09.939.314 1.066.08.045.095.043.18-.02.058-.043.124-.15.174-.282.072-.187.082-.268.082-.647 0-.386-.01-.462-.092-.7-.112-.324-.352-.787-.499-.962-.133-.159-.241-.167-.397-.033-.661.572-.85 1.59-.448 2.409.13.264.526.675.781.812.345.185.815.308 1.414.37l.19.02.127-.159c.07-.087.135-.165.146-.175.089-.078.472-.78.673-1.232.147-.33.357-.996.357-1.13 0-.039.014-.096.032-.128.059-.11.115-.726.117-1.274 0-.51-.047-1.046-.115-1.283a8.44 8.44 0 0 1-.088-.366 1.858 1.858 0 0 0-.083-.3.596.596 0 0 1-.047-.158c-.013-.07-.036-.134-.053-.144-.016-.01-.03-.039-.03-.064s-.044-.143-.1-.261a1.507 1.507 0 0 1-.099-.253c0-.02-.011-.036-.025-.036-.014 0-.054-.071-.09-.158a.872.872 0 0 0-.108-.202.156.156 0 0 1-.043-.092c0-.026-.014-.048-.03-.048s-.038-.026-.05-.058a1.782 1.782 0 0 0-.232-.378 21.82 21.82 0 0 1-.171-.212c-.231-.29-.507-.606-.599-.684a7.337 7.337 0 0 1-.2-.178 5.623 5.623 0 0 0-.3-.249 5.501 5.501 0 0 1-.333-.264c-.025-.023-.055-.042-.066-.042a.944.944 0 0 1-.16-.09 5.304 5.304 0 0 0-.538-.305c-.145-.076-.269-.133-.275-.127-.007.007.029.16.079.342.082.3.09.38.09.88-.002.453-.015.594-.073.805-.26.945-.74 1.546-1.656 2.07-.898.513-1.875.626-2.76.32-.333-.115-.816-.367-1.226-.64-.471-.313-.562-.395-.562-.506 0-.098.921-1.562 1.305-2.072.63-.84 1.146-1.175 1.75-1.136.342.022.642.175 1.007.514.38.354.473.578.355.86-.09.214-.298.376-.78.607-.25.12-.467.225-.48.233-.014.008-.025.008-.025-.001 0-.009.16-.11.358-.225.54-.315.795-.606.726-.825-.051-.161-.345-.169-.743-.019-.44.166-.824.494-1.152.988-.443.666-.424.832.111.945.837.178 1.812-.296 2.178-1.059.299-.62.28-1.244-.06-2.05-.247-.582-.23-.564-.57-.593-.365-.03-1.317-.002-1.515.045-.082.02-.27.06-.416.09a4.83 4.83 0 0 0-.85.235 2.46 2.46 0 0 0-.256.102.96.96 0 0 1-.222.079c-.027 0-.054.011-.06.025a1.194 1.194 0 0 1-.228.136c-.41.209-.832.47-.832.512 0 .015-.022.027-.048.027-.026 0-.052.01-.058.025a.794.794 0 0 1-.128.119 5.939 5.939 0 0 0-1.055 1.055.791.791 0 0 1-.119.128c-.014.006-.025.024-.025.041s-.031.067-.07.11c-.226.26-.658 1.114-.844 1.67-.05.146-.103.29-.119.32-.016.03-.04.147-.052.26-.013.112-.036.212-.052.222-.016.01-.029.073-.029.14 0 .068-.022.241-.05.385a4.68 4.68 0 0 0-.05.744v.484l.25-.234a3.532 3.532 0 0 1 1.545-.863c.263-.07.402-.085.77-.088.551-.004.837.065 1.383.33.523.254.754.417 1.134.797.471.472.696.868.856 1.51.062.25.072.388.073.99.002.798-.027 1.116-.112 1.221l-.059.073-.913-.041c-1.121-.05-1.499-.086-2.01-.188-.696-.138-1.166-.445-1.372-.892-.13-.285-.148-.684-.048-1.098.095-.392.122-.456.245-.583.184-.191.508-.219.803-.068.15.077.97.626.934.626a4.59 4.59 0 0 1-.394-.212c-.56-.322-.88-.4-1.054-.26-.302.244.396.911 1.157 1.107.29.075.913.12 1.153.084a.47.47 0 0 0 .206-.074c.109-.109.016-.53-.198-.895-.123-.21-.459-.539-.688-.675-.394-.232-.872-.337-1.265-.276-.507.079-.833.25-1.245.652-.272.265-.716.827-.717.908-.001.066.28.722.332.774.01.009.053.084.097.167.102.19.41.655.51.77l.226.266c.279.33.582.616.952.896.108.082.205.157.214.167.108.117 1.212.699 1.327.699.018 0 .038.011.044.025.014.031.402.163.711.241.8.203 1.652.277 2.28.198zm-.637-5.086c-.11-.129-1.16-2.001-1.16-2.069 0-.04.03-.102.067-.138.064-.064.11-.067 1.249-.067 1.138 0 1.185.003 1.249.067.037.036.067.099.067.138 0 .068-1.05 1.94-1.16 2.069-.028.033-.096.058-.156.058s-.128-.025-.156-.058zm6.64 5.929c.828-.855 1.052-1.293.855-1.673-.2-.389-.69-.406-.887-.031a.556.556 0 0 0 .024.55l.064.106-.113.11c-.099.095-.118.102-.168.06-.079-.064-.207-.35-.232-.517-.047-.317.174-.717.469-.848.368-.163.762-.098 1.02.168.259.267.32.575.196.973-.087.277-.213.492-.501.85l-.236.294.485.01.485.008v.365h-1.874z" transform="translate(-95.63 -125.636)"/></g></svg>