<svg width="60.093" height="60" viewBox="0 0 15.9 15.875" xmlns="http://www.w3.org/2000/svg"><path style="display:inline;fill:#000;stroke-width:.0333133" d="M102.41 141.484c-.406-.038-.792-.096-.867-.129a1.107 1.107 0 0 0-.232-.049 2.643 2.643 0 0 1-.416-.104l-.368-.12a3.628 3.628 0 0 1-.327-.132 1.727 1.727 0 0 0-.238-.096c-.044 0-.876-.43-.935-.484-.03-.027-.064-.049-.076-.049-.071 0-.713-.474-1.022-.755a6.58 6.58 0 0 0-.333-.29 9.49 9.49 0 0 1-.536-.6 6.687 6.687 0 0 0-.114-.133c-.1-.11-.416-.554-.416-.585 0-.02-.015-.036-.034-.036a.034.034 0 0 1-.033-.034.693.693 0 0 0-.09-.174 8.92 8.92 0 0 1-.607-1.207c-.08-.184-.136-.358-.136-.417 0-.037-.015-.066-.033-.066-.018 0-.033-.021-.033-.047 0-.025-.022-.119-.048-.208a7.285 7.285 0 0 1-.103-.428c-.03-.147-.068-.32-.084-.383-.046-.191-.132-1.1-.132-1.402 0-.282.076-1.05.132-1.33.09-.451.152-.707.22-.916.043-.129.087-.29.1-.358.012-.07.035-.125.052-.125.016 0 .03-.022.03-.05 0-.192.728-1.543 1.036-1.921.062-.076.145-.182.184-.235.254-.344.744-.84 1.161-1.174l.329-.264c.195-.158.634-.428.987-.609.174-.088.321-.172.327-.186.007-.014.031-.025.056-.025.024 0 .144-.045.267-.1.122-.055.243-.1.27-.1.025 0 .046-.012.046-.026 0-.014.071-.044.158-.067.087-.023.203-.056.258-.073.055-.017.168-.049.25-.07.083-.022.173-.048.2-.058.14-.051.687-.14 1.283-.206.536-.06 1.377-.018 1.982.1.45.087.707.148.916.218.128.043.29.088.358.1.069.013.125.036.125.052 0 .017.024.03.053.03.03 0 .093.021.142.048.048.026.14.067.203.091.316.122 1.299.665 1.329.735.006.014.029.025.05.025.022 0 .077.034.122.076.046.041.165.14.265.218.503.397.906.794 1.206 1.189.042.055.084.107.094.116.146.137.51.688.721 1.09.079.15.158.3.177.333.129.232.428 1.003.509 1.31.233.888.34 1.862.289 2.614-.032.458-.118 1.088-.164 1.2a1.282 1.282 0 0 0-.048.244 1.044 1.044 0 0 1-.048.233 2.02 2.02 0 0 0-.136.447.285.285 0 0 1-.032.117 3.262 3.262 0 0 0-.102.224l-.098.234c-.036.087-.43.88-.48.966a4.847 4.847 0 0 1-.66.932c-.05.055-.162.183-.25.284a8.35 8.35 0 0 1-.893.858c-.137.102-.336.26-.35.276-.079.096-1.022.625-1.5.84-.381.173-.427.191-.477.191-.028 0-.06.013-.07.029-.01.016-.08.039-.158.051a.624.624 0 0 0-.175.048c-.02.014-.148.052-.285.084-.138.032-.302.073-.367.091-.456.128-1.678.193-2.381.127zm1.347-1.399c.47-.059 1.2-.205 1.302-.26a.835.835 0 0 1 .165-.054.902.902 0 0 0 .166-.051c.046-.024.212-.094.384-.163.2-.08.846-.42.883-.465a.564.564 0 0 1 .109-.068c.115-.06.094-.078-.176-.15a3.352 3.352 0 0 1-1.43-.845c-.426-.428-.675-.848-.826-1.399-.082-.297-.09-.376-.09-.956-.002-.505.01-.687.06-.9a3.052 3.052 0 0 1 .837-1.535c.365-.37.768-.644 1.394-.95.483-.235.64-.274.734-.179.028.028.254.445.501.926.684 1.33.875 1.822.908 2.338.055.84-.313 1.315-1.22 1.58-.342.1-.383.105-.536.068-.428-.102-.549-.464-.454-1.365l.047-.45.005.45c.007.658.09.938.314 1.065.08.045.095.044.18-.02.058-.042.124-.15.174-.282.071-.187.082-.267.081-.646 0-.386-.01-.463-.092-.7-.111-.324-.352-.788-.498-.962-.133-.159-.241-.168-.397-.033-.662.572-.85 1.59-.448 2.409.13.263.525.675.781.812.345.184.815.307 1.414.37l.19.02.127-.16c.07-.086.135-.165.146-.174.089-.078.472-.78.673-1.233.147-.33.357-.996.357-1.13 0-.038.014-.096.031-.128.06-.11.116-.725.118-1.273 0-.511-.047-1.046-.116-1.283a8.439 8.439 0 0 1-.087-.366 1.858 1.858 0 0 0-.083-.3.596.596 0 0 1-.047-.159c-.013-.069-.037-.133-.053-.143-.016-.01-.03-.04-.03-.064 0-.025-.044-.143-.1-.262a1.507 1.507 0 0 1-.1-.252c0-.02-.01-.036-.024-.037-.014 0-.054-.07-.09-.158a.872.872 0 0 0-.108-.202.156.156 0 0 1-.044-.091c0-.027-.013-.048-.029-.048s-.038-.026-.05-.058a1.782 1.782 0 0 0-.233-.378 21.82 21.82 0 0 1-.17-.213c-.231-.29-.507-.605-.599-.683a7.352 7.352 0 0 1-.2-.178 5.626 5.626 0 0 0-.3-.25 5.502 5.502 0 0 1-.333-.264c-.025-.023-.055-.041-.066-.041a.944.944 0 0 1-.16-.091 5.305 5.305 0 0 0-.538-.304c-.145-.077-.269-.134-.275-.127-.007.007.028.16.079.342.082.299.09.38.09.88-.002.452-.015.594-.073.804-.26.946-.74 1.547-1.657 2.07-.897.513-1.874.627-2.76.32-.333-.114-.815-.366-1.225-.64-.471-.313-.562-.395-.562-.505 0-.099.921-1.563 1.305-2.073.63-.84 1.146-1.174 1.75-1.135.342.022.641.175 1.007.514.38.354.473.577.355.859-.09.215-.298.377-.78.608-.25.12-.467.224-.48.232-.014.008-.025.008-.025 0 0-.01.16-.11.358-.225.54-.316.795-.606.726-.826-.052-.16-.345-.168-.743-.018-.441.165-.824.494-1.152.987-.443.667-.424.833.111.946.836.177 1.812-.297 2.178-1.059.299-.62.28-1.244-.06-2.05-.247-.583-.23-.565-.57-.593-.365-.03-1.317-.002-1.515.045-.082.02-.27.06-.416.089a4.83 4.83 0 0 0-.85.236 2.46 2.46 0 0 0-.256.102.96.96 0 0 1-.222.079c-.027 0-.054.01-.06.025a1.194 1.194 0 0 1-.228.135c-.41.21-.833.47-.833.512 0 .015-.02.027-.047.027-.026 0-.052.011-.058.025a.794.794 0 0 1-.128.12 5.939 5.939 0 0 0-1.055 1.054.791.791 0 0 1-.12.128c-.013.006-.024.025-.024.042 0 .016-.032.066-.07.11-.226.26-.658 1.114-.844 1.67a3.94 3.94 0 0 1-.119.32c-.016.03-.04.147-.052.26-.013.112-.036.212-.052.222-.016.01-.029.073-.029.14 0 .068-.023.24-.05.384a4.68 4.68 0 0 0-.05.745v.483l.25-.233a3.532 3.532 0 0 1 1.545-.863c.262-.07.402-.085.77-.088.55-.004.837.064 1.383.33.522.254.754.416 1.133.796.472.473.696.869.857 1.511.062.25.072.387.073.99.002.798-.027 1.115-.112 1.22l-.06.073-.912-.04c-1.121-.05-1.499-.086-2.01-.188-.696-.139-1.167-.445-1.372-.892-.13-.285-.148-.685-.048-1.099.095-.392.122-.455.244-.583.185-.19.508-.218.804-.068.15.078.97.627.934.627-.013 0-.19-.096-.394-.213-.56-.322-.88-.4-1.054-.259-.302.244.396.91 1.157 1.107.29.074.913.12 1.153.084a.47.47 0 0 0 .206-.074c.109-.109.016-.53-.198-.896-.123-.21-.459-.538-.689-.674-.393-.233-.871-.337-1.264-.276-.507.078-.833.249-1.245.651-.272.266-.716.828-.717.909-.001.066.28.722.332.774.01.009.053.084.097.166.102.191.41.656.51.771l.226.266c.279.33.582.615.951.895.11.082.206.158.215.168.108.117 1.212.698 1.326.698.019 0 .04.012.045.025.014.032.402.163.711.242.8.202 1.652.276 2.28.197zm-.638-5.086c-.11-.128-1.16-2-1.16-2.068 0-.04.03-.102.067-.139.064-.064.111-.066 1.25-.066 1.138 0 1.185.003 1.249.066.037.037.066.1.066.139 0 .067-1.05 1.94-1.16 2.068-.027.033-.095.058-.155.058s-.128-.025-.157-.058zm7.002 5.172v-1.183h-.266v-.366h.633v2.732h-.367z" transform="translate(-95.197 -125.635)"/></svg>